# xmcd CD database file
#
# Track frame offsets:
#	150
#	11028
#	22913
#	34365
#	45078
#	56450
#	68159
#	79051
#	90094
#	104009
#	115806
#	126414
#	137651
#	149195
#	159873
#	172401
#	182948
#	194629
#	204782
#	215484
#	226717
#	239539
#	251013
#	261711
#
# Disc length: 3645 seconds
#
# Revision: 2
# Processed by: cddbd v1.5.1PL0 Copyright (c) Steve Scherf et al.
# Submitted via: CDex 1.51
#
DISCID=5e0e3b18
DTITLE=Patsy Cline - Unforgettable Patsy Cline
DYEAR=1900
DGENRE=Country
TTITLE0=Gotta Lot Of Rhythm In My Soul
TTITLE1=In Care Of The Blues
TTITLE2=Hungry For Love
TTITLE3=Lovesick Blues
TTITLE4=A Stranger in My Arms
TTITLE5=Crazy Dreams
TTITLE6=Honky Tonk Merry Go Round
TTITLE7=I Cried All The Way To The Altar
TTITLE8=A Church, A Courtroom, Then Goodbye
TTITLE9=I've Loved And Lost Again
TTITLE10=Three Cigarettes In An Ashtray
TTITLE11=I Can't Forget You
TTITLE12=Just Out Of Reach
TTITLE13=I love You Honey
TTITLE14=A Poor Man's Roses
TTITLE15=Pick Me Up (On Your Way Down)
TTITLE16=The Heart You Break
TTITLE17=Turn The Cards Slowly
TTITLE18=That Wonderful Someone
TTITLE19=Don't Ever Leave Me Again
TTITLE20=Just A Closer Walk With Thee
TTITLE21=Dear God
TTITLE22=He'll Do For You
TTITLE23=Never No More
EXTD=
EXTT0=
EXTT1=
EXTT2=
EXTT3=
EXTT4=
EXTT5=
EXTT6=
EXTT7=
EXTT8=
EXTT9=
EXTT10=
EXTT11=
EXTT12=
EXTT13=
EXTT14=
EXTT15=
EXTT16=
EXTT17=
EXTT18=
EXTT19=
EXTT20=
EXTT21=
EXTT22=
EXTT23=
PLAYORDER=
